PathFileType	4	(X/Y/Z)	E:\Qualisys_Data\Carbon_Farble_Plate\Data\Amateur_Runner\S2\T2\S2T2V23_c3d.trc
DataRate	CameraRate	NumFrames	NumMarkers	Units	OrigDataRate	OrigDataStartFrame	OrigNumFrames
200.000000	200.000000	4	39	mm	200.000000	191	306
Frame#	Time	LSHO			RSHO			LICST			RICST			LASIS			LHEEL			RASIS			LTROC			RTROC			SACR			LTH1			LSK4			LTH2			LTH3			RHM5			LSK2			LTH4			RTH1			LTOE			RTH2			RTH3			RTH4			LLEP			RLEP			LSK1			LSK3			RSK1			LHM5			RSK2			LFT1			RSK3			RSK4			LLME			RLME			RTOE			RHEEL			RFT1			RFT2			LFT2			
		X1	Y1	Z1	X2	Y2	Z2	X3	Y3	Z3	X4	Y4	Z4	X5	Y5	Z5	X6	Y6	Z6	X7	Y7	Z7	X8	Y8	Z8	X9	Y9	Z9	X10	Y10	Z10	X11	Y11	Z11	X12	Y12	Z12	X13	Y13	Z13	X14	Y14	Z14	X15	Y15	Z15	X16	Y16	Z16	X17	Y17	Z17	X18	Y18	Z18	X19	Y19	Z19	X20	Y20	Z20	X21	Y21	Z21	X22	Y22	Z22	X23	Y23	Z23	X24	Y24	Z24	X25	Y25	Z25	X26	Y26	Z26	X27	Y27	Z27	X28	Y28	Z28	X29	Y29	Z29	X30	Y30	Z30	X31	Y31	Z31	X32	Y32	Z32	X33	Y33	Z33	X34	Y34	Z34	X35	Y35	Z35	X36	Y36	Z36	X37	Y37	Z37	X38	Y38	Z38	X39	Y39	Z39	

192	0.955	823.7461547851562	1457.8837890625	-422.7479858398438	885.8840942382812	1422.368286132812	-117.7451477050781	792.1124267578125	993.1217041015624	-433.8969421386719	810.8129272460938	961.8196411132812	-132.4271697998047	851.4694213867188	944.2459106445312	-417.2247924804688	618.6361694335938	449.5090942382812	-337.5929260253906	865.1705322265625	913.4652709960938	-159.2908782958984	736.7177734375	870.0326538085938	-448.1685791015625	709.505615234375	868.3367919921875	-138.8241271972656	712.4801635742188	1020.798400878906	-273.0556640625	978.736572265625	717.2959594726562	-440.9861450195312	811.5137939453125	506.8924255371094	-424.3536682128906	912.2859497070312	667.0179443359375	-451.8866882324219	1037.493896484375	634.13720703125	-420.5420837402344	504.7499694824219	64.01179504394531	-177.7245025634766	904.5999145507812	543.4450073242188	-435.5499267578125	966.6161499023438	585.0205688476562	-424.7033081054688	772.1068725585938	595.3123779296875	-147.4123229980469	729.0465087890625	227.9662170410156	-371.5338439941406	697.5916137695312	617.5532836914062	-143.3787078857422	741.9315795898438	501.3898315429688	-173.3056945800781	666.6199951171875	527.6150512695312	-163.8437194824219	1017.944702148438	563.9754638671875	-425.2969665527344	681.1744384765625	481.3738708496094	-162.4249725341797	933.2338256835938	470.8617858886719	-421.1692810058594	839.908203125	434.9656677246094	-413.7925720214844	645.6887817382812	359.0500183105469	-168.0899505615234	683.8441772460938	270.59130859375	-425.3734741210938	582.533935546875	406.1415710449219	-150.5068359375	597.164306640625	427.4694519042969	-313.6513671875	584.5061645507812	278.5433959960938	-179.1437377929688	522.854736328125	327.2942504882812	-163.9193267822266	661.4130859375	404.1549987792969	-398.827880859375	437.9042358398438	155.4570465087891	-201.1029663085938	568.8862915039062	49.27719116210938	-242.9032897949219	360.9664306640625	163.4781188964844	-257.9312438964844	365.151123046875	131.4513702392578	-285.4541015625	349.9549865722656	139.2046508789062	-232.5891265869141	589.7744750976562	432.6001892089844	-368.0850830078125
193	0.96	842.3058471679688	1462.870483398438	-422.2627258300781	908.6425170898438	1427.5986328125	-119.1575698852539	815.0300903320312	998.9104614257812	-433.6040649414062	836.0548706054688	964.7897338867188	-133.0882110595703	874.2379150390625	949.5153198242188	-417.2671508789062	649.6723022460938	435.609130859375	-336.7194519042969	889.282958984375	916.6863403320312	-159.9747314453125	761.3914184570312	876.1135864257812	-449.5075378417969	732.0176391601562	874.1190185546875	-138.4496917724609	736.0155029296875	1025.170776367188	-271.4119262695312	1003.532836914062	724.255859375	-440.2082214355469	839.616943359375	503.6844787597656	-422.8938903808594	937.0524291992188	673.47265625	-450.851806640625	1062.495483398438	641.59521484375	-419.4949645996094	507.9726257324219	65.36875915527344	-176.5385894775391	930.5498046875	544.6207275390625	-433.4619445800781	992.6192626953124	592.2737426757812	-423.5166625976562	788.7979125976562	599.789306640625	-147.6059875488281	772.54736328125	220.9922485351562	-371.7558288574219	714.8009643554688	624.9351196289062	-142.3727722167969	755.0299682617188	506.6570739746094	-174.2970275878906	680.5151977539062	535.6239013671875	-162.9843597412109	1043.742919921875	571.3648681640625	-423.5068359375	693.1399536132812	488.8696594238281	-161.4977874755859	963.0855102539062	473.7460327148438	-420.2137756347656	871.9962768554688	432.3639221191406	-412.9796447753906	659.5093383789062	368.6451110839844	-162.9915466308594	724.740478515625	261.1333312988281	-425.6461486816406	592.421630859375	415.1507263183594	-148.8449096679688	630.245849609375	412.2280883789062	-313.5696716308594	594.0785522460938	286.9541625976562	-176.7364044189453	532.9744262695312	336.2507934570312	-162.3126678466797	694.4917602539062	393.1323547363281	-398.3976135253906	447.159423828125	163.2739562988281	-199.3391571044922	571.5308227539062	49.41921997070312	-241.0088348388672	371.5713195800781	175.2440032958984	-257.2104187011719	374.7673950195312	143.6591491699219	-285.1244201660156	359.43359375	151.3387603759766	-232.0310211181641	621.5741577148438	417.4676513671875	-367.2710266113281
194	0.965	860.9444580078125	1467.48193359375	-421.5010681152344	931.3701782226562	1432.808227539062	-120.6575927734375	838.2132568359375	1004.680358886719	-433.4284973144531	861.510498046875	968.54638671875	-133.0515594482422	897.1622314453125	954.2913818359376	-416.8414611816406	681.2362060546875	421.5641479492188	-335.6925964355469	913.0116577148438	919.5587768554688	-160.7319488525391	785.3203735351562	882.0455322265625	-450.3007202148438	754.662109375	879.7799682617188	-138.1405029296875	759.4116821289062	1029.3232421875	-270.22216796875	1028.151733398438	730.268310546875	-438.7583618164062	867.2243041992188	499.6375732421875	-421.6120300292969	962.2037963867188	680.1212158203125	-450.3940734863281	1087.606323242188	648.2669677734375	-417.9151306152344	511.820068359375	67.01512908935547	-174.8695373535156	956.1503295898438	545.5121459960938	-432.4624328613281	1017.794616699219	598.506103515625	-422.8417358398438	806.0081787109375	604.38623046875	-147.7079315185547	815.7753295898438	214.3266906738281	-372.3464050292969	732.9346313476562	631.721923828125	-141.4800415039062	768.8934936523438	512.5088500976562	-174.6504364013672	695.3865356445312	543.9501342773438	-161.5097198486328	1068.5234375	577.2734375	-421.583740234375	706.0447387695312	496.6432189941406	-159.7405242919922	992.3511352539062	475.0834350585938	-419.1553649902344	902.792724609375	431.0425720214844	-412.3256225585938	666.4376831054688	376.4602966308594	-163.6714172363281	765.6426391601562	252.2214813232422	-425.8103942871094	603.2479248046875	423.8221130371094	-146.9002380371094	663.0291748046875	396.8801574707031	-313.0194396972656	605.0460815429688	295.5556335449219	-174.2768402099609	543.85498046875	344.6984558105469	-160.8531494140625	728.357666015625	381.9735717773438	-397.4701843261719	457.5673217773438	170.8283386230469	-198.0574340820312	574.8388671875	48.98384094238281	-239.4050750732422	387.9090270996094	189.7435150146484	-255.0353851318359	385.8296203613281	156.6136016845703	-285.1756591796875	369.9344482421875	163.9789581298828	-232.1846771240234	654.1903686523438	402.1419067382812	-366.4329528808594
195	0.97	879.8096313476562	1471.786376953125	-421.0080261230469	953.6829833984376	1437.996459960938	-121.9970703125	861.1644897460938	1010.019653320312	-433.1843872070312	886.4697265625	972.1095581054688	-133.4996490478516	919.9256591796876	959.0640258789062	-416.5744934082031	712.917236328125	407.14208984375	-334.0482482910156	937.1864624023438	922.8934936523438	-161.2676849365234	809.7304077148438	887.5932006835938	-451.137939453125	777.4380493164062	885.5498657226562	-137.5625610351562	782.5830688476562	1033.521240234375	-269.0939636230469	1052.833618164062	736.4862670898438	-438.0539855957031	894.9093017578125	494.7607421875	-420.5687866210938	987.3594970703124	685.814208984375	-450.2401733398438	1112.311767578125	654.1807861328125	-416.9549560546875	515.8701782226562	69.34671020507812	-173.4187927246094	981.2302856445312	545.2481079101562	-430.8594665527344	1042.460693359375	604.2687377929688	-422.2854919433594	823.5089111328125	609.6891479492188	-147.1092224121094	859.1802368164062	208.2289733886719	-372.7877197265625	751.0446166992188	638.9944458007812	-140.0475616455078	783.7454833984375	518.778564453125	-172.8303527832031	710.5099487304688	552.247314453125	-160.2125854492188	1093.038452148438	583.4218139648438	-420.3039855957031	719.6514892578125	504.6013793945312	-158.3734130859375	1021.531616210938	476.3494873046875	-418.4644775390625	934.1689453125	427.7002868652344	-410.8970947265625	678.0252685546875	385.6634521484375	-161.4259033203125	806.4873657226562	243.4316101074219	-425.9084167480469	614.69921875	432.7138977050781	-145.5298309326172	696.7655029296875	381.1376647949219	-312.0452270507812	616.9536743164062	304.0875549316406	-171.3865051269531	555.5965576171875	353.5697021484375	-159.2583160400391	762.3778076171875	370.5849914550781	-396.2783508300781	469.0029907226562	178.7962951660156	-196.0193328857422	578.7281494140625	48.60858917236328	-237.7556915283203	402.2385864257812	201.9374237060547	-254.2955169677734	398.4681396484375	169.8847961425781	-285.1439514160156	382.1040649414062	177.2487640380859	-232.2086944580078	687.6214599609375	386.6490783691406	-366.0633850097656
